{
.appVersion = "1287";
copyright = "SIL OPEN FONT LICENSE Version 1.1";
customParameters = (
{
name = license;
value = "This Font Software is licensed under the SIL Open Font License, Version 1.1. This license is available with a FAQ at: http://scripts.sil.org/OFL";
},
{
name = licenseURL;
value = "http://scripts.sil.org/OFL";
},
{
name = panose;
value = (
0,
0,
5,
0,
0,
0,
0,
0,
0,
0
);
}
);
date = "2017-03-04 05:06:27 +0000";
designer = "Trevor Bullock";
familyName = "KA Almouzios Chronos";
fontMaster = (
{
ascender = 800;
capHeight = 700;
descender = -200;
id = "B0517E77-D256-4C17-95BC-6E734652FD44";
xHeight = 500;
}
);
glyphs = (
{
glyphname = A;
lastChange = "2020-05-21 17:23:43 +0000";
layers = (
{
layerId = "B0517E77-D256-4C17-95BC-6E734652FD44";
paths = (
{
closed = 1;
nodes = (
"-588 228 OFFCURVE",
"-586 233 OFFCURVE",
"-586 238 CURVE SMOOTH",
"-586 245 OFFCURVE",
"-593 256 OFFCURVE",
"-606 272 CURVE SMOOTH",
"-634 305 LINE",
"-546 310 LINE SMOOTH",
"-501 313 OFFCURVE",
"-472 315 OFFCURVE",
"-458 317 CURVE",
"-444 318 OFFCURVE",
"-436 322 OFFCURVE",
"-433 327 CURVE",
"-432 330 OFFCURVE",
"-431 333 OFFCURVE",
"-431 336 CURVE SMOOTH",
"-431 350 OFFCURVE",
"-443 369 OFFCURVE",
"-466 392 CURVE SMOOTH",
"-470 396 OFFCURVE",
"-479 407 OFFCURVE",
"-494 425 CURVE",
"-451 427 LINE SMOOTH",
"-369 431 OFFCURVE",
"-326 438 OFFCURVE",
"-323 447 CURVE",
"-322 452 OFFCURVE",
"-334 456 OFFCURVE",
"-359 458 CURVE",
"-385 459 OFFCURVE",
"-435 460 OFFCURVE",
"-510 460 CURVE SMOOTH",
"-538 460 OFFCURVE",
"-563 459 OFFCURVE",
"-586 457 CURVE SMOOTH",
"-609 455 OFFCURVE",
"-621 452 OFFCURVE",
"-621 449 CURVE SMOOTH",
"-621 446 OFFCURVE",
"-616 439 OFFCURVE",
"-605 426 CURVE",
"-585 400 OFFCURVE",
"-551 360 OFFCURVE",
"-520 339 CURVE",
"-535 340 OFFCURVE",
"-564 340 OFFCURVE",
"-605 340 CURVE SMOOTH",
"-709 340 OFFCURVE",
"-761 336 OFFCURVE",
"-761 329 CURVE SMOOTH",
"-761 326 OFFCURVE",
"-756 319 OFFCURVE",
"-745 306 CURVE",
"-735 293 OFFCURVE",
"-723 279 OFFCURVE",
"-710 264 CURVE",
"-675 227 OFFCURVE",
"-646 208 OFFCURVE",
"-624 208 CURVE SMOOTH",
"-611 208 OFFCURVE",
"-600 214 OFFCURVE",
"-591 225 CURVE"
);
},
{
closed = 1;
nodes = (
"-837 263 OFFCURVE",
"-827 264 OFFCURVE",
"-822 265 CURVE SMOOTH",
"-817 266 OFFCURVE",
"-813 270 OFFCURVE",
"-812 275 CURVE SMOOTH",
"-811 280 OFFCURVE",
"-809 283 OFFCURVE",
"-808 286 CURVE",
"-804 301 OFFCURVE",
"-800 312 OFFCURVE",
"-796 318 CURVE SMOOTH",
"-794 321 OFFCURVE",
"-795 323 OFFCURVE",
"-798 324 CURVE",
"-802 325 OFFCURVE",
"-813 325 OFFCURVE",
"-831 325 CURVE SMOOTH",
"-847 325 OFFCURVE",
"-857 325 OFFCURVE",
"-861 324 CURVE SMOOTH",
"-865 323 OFFCURVE",
"-867 321 OFFCURVE",
"-868 317 CURVE",
"-869 312 OFFCURVE",
"-870 308 OFFCURVE",
"-871 304 CURVE",
"-876 291 OFFCURVE",
"-879 283 OFFCURVE",
"-882 279 CURVE",
"-884 276 OFFCURVE",
"-885 274 OFFCURVE",
"-885 272 CURVE SMOOTH",
"-885 266 OFFCURVE",
"-873 263 OFFCURVE",
"-850 263 CURVE SMOOTH"
);
}
);
width = 0;
}
);
note = A;
unicode = 0041;
},
{
glyphname = Q;
lastChange = "2020-05-21 17:23:43 +0000";
layers = (
{
layerId = "B0517E77-D256-4C17-95BC-6E734652FD44";
paths = (
{
closed = 1;
nodes = (
"-588 228 OFFCURVE",
"-586 233 OFFCURVE",
"-586 238 CURVE SMOOTH",
"-586 245 OFFCURVE",
"-593 256 OFFCURVE",
"-606 272 CURVE SMOOTH",
"-634 305 LINE",
"-566 310 LINE",
"-535 312 LINE SMOOTH",
"-506 314 OFFCURVE",
"-485 316 OFFCURVE",
"-473 318 CURVE",
"-450 321 OFFCURVE",
"-447 333 OFFCURVE",
"-455 347 CURVE SMOOTH",
"-459 354 OFFCURVE",
"-469 365 OFFCURVE",
"-486 382 CURVE SMOOTH",
"-490 386 OFFCURVE",
"-499 397 OFFCURVE",
"-514 415 CURVE",
"-471 417 LINE",
"-415 419 LINE",
"-392 419 OFFCURVE",
"-375 420 OFFCURVE",
"-365 422 CURVE",
"-356 423 OFFCURVE",
"-348 427 OFFCURVE",
"-342 434 CURVE",
"-338 438 OFFCURVE",
"-336 442 OFFCURVE",
"-336 446 CURVE SMOOTH",
"-336 455 OFFCURVE",
"-343 467 OFFCURVE",
"-356 482 CURVE SMOOTH",
"-384 515 LINE",
"-316 520 LINE SMOOTH",
"-277 523 OFFCURVE",
"-248 525 OFFCURVE",
"-231 528 CURVE",
"-196 532 OFFCURVE",
"-189 544 OFFCURVE",
"-237 548 CURVE",
"-261 549 OFFCURVE",
"-307 550 OFFCURVE",
"-375 550 CURVE SMOOTH",
"-430 550 OFFCURVE",
"-466 549 OFFCURVE",
"-484 548 CURVE",
"-502 546 OFFCURVE",
"-511 543 OFFCURVE",
"-511 539 CURVE SMOOTH",
"-511 532 OFFCURVE",
"-441 464 OFFCURVE",
"-422 449 CURVE",
"-440 450 OFFCURVE",
"-476 450 OFFCURVE",
"-530 450 CURVE SMOOTH",
"-558 450 OFFCURVE",
"-583 449 OFFCURVE",
"-606 447 CURVE SMOOTH",
"-629 445 OFFCURVE",
"-641 442 OFFCURVE",
"-641 439 CURVE SMOOTH",
"-641 426 OFFCURVE",
"-572 362 OFFCURVE",
"-540 339 CURVE",
"-555 340 OFFCURVE",
"-577 340 OFFCURVE",
"-605 340 CURVE SMOOTH",
"-709 340 OFFCURVE",
"-761 336 OFFCURVE",
"-761 329 CURVE SMOOTH",
"-761 326 OFFCURVE",
"-756 319 OFFCURVE",
"-745 306 CURVE",
"-735 293 OFFCURVE",
"-723 279 OFFCURVE",
"-710 264 CURVE",
"-675 227 OFFCURVE",
"-646 208 OFFCURVE",
"-624 208 CURVE SMOOTH",
"-611 208 OFFCURVE",
"-600 214 OFFCURVE",
"-591 225 CURVE"
);
},
{
closed = 1;
nodes = (
"-847 269 OFFCURVE",
"-837 270 OFFCURVE",
"-832 271 CURVE SMOOTH",
"-827 272 OFFCURVE",
"-823 276 OFFCURVE",
"-822 281 CURVE SMOOTH",
"-821 286 OFFCURVE",
"-819 289 OFFCURVE",
"-818 292 CURVE",
"-814 307 OFFCURVE",
"-810 318 OFFCURVE",
"-806 324 CURVE SMOOTH",
"-804 327 OFFCURVE",
"-805 329 OFFCURVE",
"-808 330 CURVE",
"-812 331 OFFCURVE",
"-823 331 OFFCURVE",
"-841 331 CURVE SMOOTH",
"-857 331 OFFCURVE",
"-867 331 OFFCURVE",
"-871 330 CURVE SMOOTH",
"-875 329 OFFCURVE",
"-877 327 OFFCURVE",
"-878 323 CURVE",
"-879 318 OFFCURVE",
"-880 314 OFFCURVE",
"-881 310 CURVE",
"-886 297 OFFCURVE",
"-889 289 OFFCURVE",
"-892 285 CURVE",
"-894 282 OFFCURVE",
"-895 280 OFFCURVE",
"-895 278 CURVE SMOOTH",
"-895 272 OFFCURVE",
"-883 269 OFFCURVE",
"-860 269 CURVE SMOOTH"
);
}
);
width = 0;
}
);
note = Q;
unicode = 0051;
},
{
glyphname = a;
lastChange = "2020-05-21 17:23:43 +0000";
layers = (
{
layerId = "B0517E77-D256-4C17-95BC-6E734652FD44";
paths = (
{
closed = 1;
nodes = (
"-588 228 OFFCURVE",
"-586 233 OFFCURVE",
"-586 238 CURVE SMOOTH",
"-586 245 OFFCURVE",
"-593 256 OFFCURVE",
"-606 272 CURVE SMOOTH",
"-634 305 LINE",
"-546 310 LINE SMOOTH",
"-501 313 OFFCURVE",
"-472 315 OFFCURVE",
"-458 317 CURVE",
"-444 318 OFFCURVE",
"-436 322 OFFCURVE",
"-433 327 CURVE",
"-432 330 OFFCURVE",
"-431 333 OFFCURVE",
"-431 336 CURVE SMOOTH",
"-431 350 OFFCURVE",
"-443 369 OFFCURVE",
"-466 392 CURVE SMOOTH",
"-470 396 OFFCURVE",
"-479 407 OFFCURVE",
"-494 425 CURVE",
"-451 427 LINE SMOOTH",
"-369 431 OFFCURVE",
"-326 438 OFFCURVE",
"-323 447 CURVE",
"-322 452 OFFCURVE",
"-334 456 OFFCURVE",
"-359 458 CURVE",
"-385 459 OFFCURVE",
"-435 460 OFFCURVE",
"-510 460 CURVE SMOOTH",
"-538 460 OFFCURVE",
"-563 459 OFFCURVE",
"-586 457 CURVE SMOOTH",
"-609 455 OFFCURVE",
"-621 452 OFFCURVE",
"-621 449 CURVE SMOOTH",
"-621 446 OFFCURVE",
"-616 439 OFFCURVE",
"-605 426 CURVE",
"-585 400 OFFCURVE",
"-551 360 OFFCURVE",
"-520 339 CURVE",
"-535 340 OFFCURVE",
"-564 340 OFFCURVE",
"-605 340 CURVE SMOOTH",
"-709 340 OFFCURVE",
"-761 336 OFFCURVE",
"-761 329 CURVE SMOOTH",
"-761 326 OFFCURVE",
"-756 319 OFFCURVE",
"-745 306 CURVE",
"-735 293 OFFCURVE",
"-723 279 OFFCURVE",
"-710 264 CURVE",
"-675 227 OFFCURVE",
"-646 208 OFFCURVE",
"-624 208 CURVE SMOOTH",
"-611 208 OFFCURVE",
"-600 214 OFFCURVE",
"-591 225 CURVE"
);
}
);
width = 0;
}
);
note = a;
unicode = 0061;
},
{
glyphname = aring;
lastChange = "2020-05-21 17:23:43 +0000";
layers = (
{
layerId = "B0517E77-D256-4C17-95BC-6E734652FD44";
paths = (
{
closed = 1;
nodes = (
"-588 228 OFFCURVE",
"-586 233 OFFCURVE",
"-586 238 CURVE SMOOTH",
"-586 245 OFFCURVE",
"-593 256 OFFCURVE",
"-606 272 CURVE SMOOTH",
"-634 305 LINE",
"-546 310 LINE SMOOTH",
"-501 313 OFFCURVE",
"-472 315 OFFCURVE",
"-458 317 CURVE",
"-444 318 OFFCURVE",
"-436 322 OFFCURVE",
"-433 327 CURVE",
"-432 330 OFFCURVE",
"-431 333 OFFCURVE",
"-431 336 CURVE SMOOTH",
"-431 350 OFFCURVE",
"-443 369 OFFCURVE",
"-466 392 CURVE SMOOTH",
"-470 396 OFFCURVE",
"-479 407 OFFCURVE",
"-494 425 CURVE",
"-451 427 LINE SMOOTH",
"-369 431 OFFCURVE",
"-326 438 OFFCURVE",
"-323 447 CURVE",
"-322 452 OFFCURVE",
"-334 456 OFFCURVE",
"-359 458 CURVE",
"-385 459 OFFCURVE",
"-435 460 OFFCURVE",
"-510 460 CURVE SMOOTH",
"-538 460 OFFCURVE",
"-563 459 OFFCURVE",
"-586 457 CURVE SMOOTH",
"-609 455 OFFCURVE",
"-621 452 OFFCURVE",
"-621 449 CURVE SMOOTH",
"-621 446 OFFCURVE",
"-616 439 OFFCURVE",
"-605 426 CURVE",
"-585 400 OFFCURVE",
"-551 360 OFFCURVE",
"-520 339 CURVE",
"-535 340 OFFCURVE",
"-564 340 OFFCURVE",
"-605 340 CURVE SMOOTH",
"-709 340 OFFCURVE",
"-761 336 OFFCURVE",
"-761 329 CURVE SMOOTH",
"-761 326 OFFCURVE",
"-756 319 OFFCURVE",
"-745 306 CURVE",
"-735 293 OFFCURVE",
"-723 279 OFFCURVE",
"-710 264 CURVE",
"-675 227 OFFCURVE",
"-646 208 OFFCURVE",
"-624 208 CURVE SMOOTH",
"-611 208 OFFCURVE",
"-600 214 OFFCURVE",
"-591 225 CURVE"
);
},
{
closed = 1;
nodes = (
"-232 393 OFFCURVE",
"-222 394 OFFCURVE",
"-217 395 CURVE SMOOTH",
"-212 396 OFFCURVE",
"-208 400 OFFCURVE",
"-207 405 CURVE SMOOTH",
"-206 410 OFFCURVE",
"-204 413 OFFCURVE",
"-203 416 CURVE",
"-199 431 OFFCURVE",
"-195 442 OFFCURVE",
"-191 448 CURVE SMOOTH",
"-189 451 OFFCURVE",
"-190 453 OFFCURVE",
"-193 454 CURVE",
"-197 455 OFFCURVE",
"-208 455 OFFCURVE",
"-226 455 CURVE SMOOTH",
"-242 455 OFFCURVE",
"-252 455 OFFCURVE",
"-256 454 CURVE SMOOTH",
"-260 453 OFFCURVE",
"-262 451 OFFCURVE",
"-263 447 CURVE",
"-264 442 OFFCURVE",
"-265 438 OFFCURVE",
"-266 434 CURVE",
"-271 421 OFFCURVE",
"-274 413 OFFCURVE",
"-277 409 CURVE",
"-279 406 OFFCURVE",
"-280 404 OFFCURVE",
"-280 402 CURVE SMOOTH",
"-280 396 OFFCURVE",
"-268 393 OFFCURVE",
"-245 393 CURVE SMOOTH"
);
}
);
width = 0;
}
);
note = aring;
unicode = 00E5;
},
{
glyphname = oe;
lastChange = "2020-05-21 17:23:43 +0000";
layers = (
{
layerId = "B0517E77-D256-4C17-95BC-6E734652FD44";
paths = (
{
closed = 1;
nodes = (
"-588 228 OFFCURVE",
"-586 233 OFFCURVE",
"-586 238 CURVE SMOOTH",
"-586 245 OFFCURVE",
"-593 256 OFFCURVE",
"-606 272 CURVE SMOOTH",
"-634 305 LINE",
"-566 310 LINE",
"-535 312 LINE SMOOTH",
"-506 314 OFFCURVE",
"-485 316 OFFCURVE",
"-473 318 CURVE",
"-450 321 OFFCURVE",
"-447 333 OFFCURVE",
"-455 347 CURVE SMOOTH",
"-459 354 OFFCURVE",
"-469 365 OFFCURVE",
"-486 382 CURVE SMOOTH",
"-490 386 OFFCURVE",
"-499 397 OFFCURVE",
"-514 415 CURVE",
"-471 417 LINE",
"-415 419 LINE",
"-392 419 OFFCURVE",
"-375 420 OFFCURVE",
"-365 422 CURVE",
"-356 423 OFFCURVE",
"-348 427 OFFCURVE",
"-342 434 CURVE",
"-338 438 OFFCURVE",
"-336 442 OFFCURVE",
"-336 446 CURVE SMOOTH",
"-336 455 OFFCURVE",
"-343 467 OFFCURVE",
"-356 482 CURVE SMOOTH",
"-384 515 LINE",
"-316 520 LINE SMOOTH",
"-277 523 OFFCURVE",
"-248 525 OFFCURVE",
"-231 528 CURVE",
"-196 532 OFFCURVE",
"-189 544 OFFCURVE",
"-237 548 CURVE",
"-261 549 OFFCURVE",
"-307 550 OFFCURVE",
"-375 550 CURVE SMOOTH",
"-430 550 OFFCURVE",
"-466 549 OFFCURVE",
"-484 548 CURVE",
"-502 546 OFFCURVE",
"-511 543 OFFCURVE",
"-511 539 CURVE SMOOTH",
"-511 532 OFFCURVE",
"-441 464 OFFCURVE",
"-422 449 CURVE",
"-440 450 OFFCURVE",
"-476 450 OFFCURVE",
"-530 450 CURVE SMOOTH",
"-558 450 OFFCURVE",
"-583 449 OFFCURVE",
"-606 447 CURVE SMOOTH",
"-629 445 OFFCURVE",
"-641 442 OFFCURVE",
"-641 439 CURVE SMOOTH",
"-641 426 OFFCURVE",
"-572 362 OFFCURVE",
"-540 339 CURVE",
"-555 340 OFFCURVE",
"-577 340 OFFCURVE",
"-605 340 CURVE SMOOTH",
"-709 340 OFFCURVE",
"-761 336 OFFCURVE",
"-761 329 CURVE SMOOTH",
"-761 326 OFFCURVE",
"-756 319 OFFCURVE",
"-745 306 CURVE",
"-735 293 OFFCURVE",
"-723 279 OFFCURVE",
"-710 264 CURVE",
"-675 227 OFFCURVE",
"-646 208 OFFCURVE",
"-624 208 CURVE SMOOTH",
"-611 208 OFFCURVE",
"-600 214 OFFCURVE",
"-591 225 CURVE"
);
},
{
closed = 1;
nodes = (
"-107 479 OFFCURVE",
"-97 480 OFFCURVE",
"-92 481 CURVE SMOOTH",
"-87 482 OFFCURVE",
"-83 486 OFFCURVE",
"-82 491 CURVE SMOOTH",
"-81 496 OFFCURVE",
"-79 499 OFFCURVE",
"-78 502 CURVE",
"-74 517 OFFCURVE",
"-70 528 OFFCURVE",
"-66 534 CURVE SMOOTH",
"-64 537 OFFCURVE",
"-65 539 OFFCURVE",
"-68 540 CURVE",
"-72 541 OFFCURVE",
"-83 541 OFFCURVE",
"-101 541 CURVE SMOOTH",
"-117 541 OFFCURVE",
"-127 541 OFFCURVE",
"-131 540 CURVE SMOOTH",
"-135 539 OFFCURVE",
"-137 537 OFFCURVE",
"-138 533 CURVE",
"-139 528 OFFCURVE",
"-140 524 OFFCURVE",
"-141 520 CURVE",
"-146 507 OFFCURVE",
"-149 499 OFFCURVE",
"-152 495 CURVE",
"-154 492 OFFCURVE",
"-155 490 OFFCURVE",
"-155 488 CURVE SMOOTH",
"-155 482 OFFCURVE",
"-143 479 OFFCURVE",
"-120 479 CURVE SMOOTH"
);
}
);
width = 0;
}
);
note = oe;
unicode = 0153;
},
{
glyphname = q;
lastChange = "2020-05-21 17:23:43 +0000";
layers = (
{
layerId = "B0517E77-D256-4C17-95BC-6E734652FD44";
paths = (
{
closed = 1;
nodes = (
"-588 228 OFFCURVE",
"-586 233 OFFCURVE",
"-586 238 CURVE SMOOTH",
"-586 245 OFFCURVE",
"-593 256 OFFCURVE",
"-606 272 CURVE SMOOTH",
"-634 305 LINE",
"-566 310 LINE",
"-535 312 LINE SMOOTH",
"-506 314 OFFCURVE",
"-485 316 OFFCURVE",
"-473 318 CURVE",
"-450 321 OFFCURVE",
"-447 333 OFFCURVE",
"-455 347 CURVE SMOOTH",
"-459 354 OFFCURVE",
"-469 365 OFFCURVE",
"-486 382 CURVE SMOOTH",
"-490 386 OFFCURVE",
"-499 397 OFFCURVE",
"-514 415 CURVE",
"-471 417 LINE",
"-415 419 LINE",
"-392 419 OFFCURVE",
"-375 420 OFFCURVE",
"-365 422 CURVE",
"-356 423 OFFCURVE",
"-348 427 OFFCURVE",
"-342 434 CURVE",
"-338 438 OFFCURVE",
"-336 442 OFFCURVE",
"-336 446 CURVE SMOOTH",
"-336 455 OFFCURVE",
"-343 467 OFFCURVE",
"-356 482 CURVE SMOOTH",
"-384 515 LINE",
"-316 520 LINE SMOOTH",
"-277 523 OFFCURVE",
"-248 525 OFFCURVE",
"-231 528 CURVE",
"-196 532 OFFCURVE",
"-189 544 OFFCURVE",
"-237 548 CURVE",
"-261 549 OFFCURVE",
"-307 550 OFFCURVE",
"-375 550 CURVE SMOOTH",
"-430 550 OFFCURVE",
"-466 549 OFFCURVE",
"-484 548 CURVE",
"-502 546 OFFCURVE",
"-511 543 OFFCURVE",
"-511 539 CURVE SMOOTH",
"-511 532 OFFCURVE",
"-441 464 OFFCURVE",
"-422 449 CURVE",
"-440 450 OFFCURVE",
"-476 450 OFFCURVE",
"-530 450 CURVE SMOOTH",
"-558 450 OFFCURVE",
"-583 449 OFFCURVE",
"-606 447 CURVE SMOOTH",
"-629 445 OFFCURVE",
"-641 442 OFFCURVE",
"-641 439 CURVE SMOOTH",
"-641 426 OFFCURVE",
"-572 362 OFFCURVE",
"-540 339 CURVE",
"-555 340 OFFCURVE",
"-577 340 OFFCURVE",
"-605 340 CURVE SMOOTH",
"-709 340 OFFCURVE",
"-761 336 OFFCURVE",
"-761 329 CURVE SMOOTH",
"-761 326 OFFCURVE",
"-756 319 OFFCURVE",
"-745 306 CURVE",
"-735 293 OFFCURVE",
"-723 279 OFFCURVE",
"-710 264 CURVE",
"-675 227 OFFCURVE",
"-646 208 OFFCURVE",
"-624 208 CURVE SMOOTH",
"-611 208 OFFCURVE",
"-600 214 OFFCURVE",
"-591 225 CURVE"
);
}
);
width = 0;
}
);
note = q;
unicode = 0071;
},
{
glyphname = period;
lastChange = "2020-05-21 17:23:43 +0000";
layers = (
{
layerId = "B0517E77-D256-4C17-95BC-6E734652FD44";
paths = (
{
closed = 1;
nodes = (
"-558 208 OFFCURVE",
"-529 227 OFFCURVE",
"-494 264 CURVE",
"-481 279 OFFCURVE",
"-469 293 OFFCURVE",
"-458 306 CURVE",
"-448 319 OFFCURVE",
"-443 326 OFFCURVE",
"-443 329 CURVE SMOOTH",
"-443 336 OFFCURVE",
"-495 340 OFFCURVE",
"-599 340 CURVE SMOOTH",
"-640 340 OFFCURVE",
"-669 340 OFFCURVE",
"-684 339 CURVE",
"-653 360 OFFCURVE",
"-619 400 OFFCURVE",
"-598 426 CURVE SMOOTH",
"-588 439 OFFCURVE",
"-583 446 OFFCURVE",
"-583 449 CURVE SMOOTH",
"-583 456 OFFCURVE",
"-634 460 OFFCURVE",
"-661 460 CURVE SMOOTH",
"-681 460 OFFCURVE",
"-685 456 OFFCURVE",
"-692 444 CURVE SMOOTH",
"-697 435 OFFCURVE",
"-702 429 OFFCURVE",
"-706 425 CURVE SMOOTH",
"-738 392 LINE SMOOTH",
"-761 369 OFFCURVE",
"-773 350 OFFCURVE",
"-773 336 CURVE SMOOTH",
"-773 333 OFFCURVE",
"-772 330 OFFCURVE",
"-771 327 CURVE",
"-768 322 OFFCURVE",
"-760 318 OFFCURVE",
"-746 317 CURVE",
"-732 315 OFFCURVE",
"-703 313 OFFCURVE",
"-658 310 CURVE SMOOTH",
"-570 305 LINE",
"-598 272 LINE SMOOTH",
"-611 256 OFFCURVE",
"-618 245 OFFCURVE",
"-618 238 CURVE SMOOTH",
"-618 233 OFFCURVE",
"-616 228 OFFCURVE",
"-613 225 CURVE",
"-604 214 OFFCURVE",
"-593 208 OFFCURVE",
"-580 208 CURVE SMOOTH"
);
}
);
width = 0;
}
);
note = period;
unicode = 002E;
},
{
glyphname = comma;
lastChange = "2020-05-21 17:23:43 +0000";
layers = (
{
layerId = "B0517E77-D256-4C17-95BC-6E734652FD44";
paths = (
{
closed = 1;
nodes = (
"-538 208 OFFCURVE",
"-509 227 OFFCURVE",
"-474 264 CURVE",
"-438 306 LINE",
"-428 319 OFFCURVE",
"-423 326 OFFCURVE",
"-423 329 CURVE SMOOTH",
"-423 336 OFFCURVE",
"-482 340 OFFCURVE",
"-599 340 CURVE SMOOTH",
"-660 340 OFFCURVE",
"-700 339 OFFCURVE",
"-720 338 CURVE",
"-741 336 OFFCURVE",
"-751 333 OFFCURVE",
"-751 329 CURVE SMOOTH",
"-751 324 OFFCURVE",
"-745 320 OFFCURVE",
"-732 317 CURVE SMOOTH",
"-719 314 OFFCURVE",
"-695 311 OFFCURVE",
"-658 310 CURVE SMOOTH",
"-550 305 LINE",
"-578 272 LINE SMOOTH",
"-591 256 OFFCURVE",
"-598 245 OFFCURVE",
"-598 238 CURVE SMOOTH",
"-598 233 OFFCURVE",
"-596 228 OFFCURVE",
"-593 225 CURVE",
"-584 214 OFFCURVE",
"-573 208 OFFCURVE",
"-560 208 CURVE SMOOTH"
);
}
);
width = 0;
}
);
note = comma;
unicode = 002C;
},
{
glyphname = slash;
lastChange = "2020-05-21 17:23:43 +0000";
layers = (
{
layerId = "B0517E77-D256-4C17-95BC-6E734652FD44";
paths = (
{
closed = 1;
nodes = (
"-558 208 OFFCURVE",
"-529 227 OFFCURVE",
"-494 264 CURVE",
"-458 306 LINE",
"-448 319 OFFCURVE",
"-443 326 OFFCURVE",
"-443 329 CURVE SMOOTH",
"-443 336 OFFCURVE",
"-495 340 OFFCURVE",
"-599 340 CURVE SMOOTH",
"-640 340 OFFCURVE",
"-669 340 OFFCURVE",
"-684 339 CURVE",
"-653 360 OFFCURVE",
"-619 400 OFFCURVE",
"-598 426 CURVE SMOOTH",
"-588 439 OFFCURVE",
"-583 446 OFFCURVE",
"-583 449 CURVE SMOOTH",
"-583 452 OFFCURVE",
"-594 455 OFFCURVE",
"-617 457 CURVE SMOOTH",
"-640 459 OFFCURVE",
"-666 460 OFFCURVE",
"-694 460 CURVE SMOOTH",
"-769 460 OFFCURVE",
"-819 459 OFFCURVE",
"-844 458 CURVE",
"-870 456 OFFCURVE",
"-882 452 OFFCURVE",
"-881 447 CURVE",
"-878 438 OFFCURVE",
"-835 431 OFFCURVE",
"-753 427 CURVE SMOOTH",
"-710 425 LINE",
"-725 407 OFFCURVE",
"-734 396 OFFCURVE",
"-738 392 CURVE SMOOTH",
"-761 369 OFFCURVE",
"-773 350 OFFCURVE",
"-773 336 CURVE SMOOTH",
"-773 333 OFFCURVE",
"-772 330 OFFCURVE",
"-771 327 CURVE",
"-768 322 OFFCURVE",
"-760 318 OFFCURVE",
"-746 317 CURVE",
"-732 315 OFFCURVE",
"-703 313 OFFCURVE",
"-658 310 CURVE SMOOTH",
"-570 305 LINE",
"-598 272 LINE SMOOTH",
"-611 256 OFFCURVE",
"-618 245 OFFCURVE",
"-618 238 CURVE SMOOTH",
"-618 233 OFFCURVE",
"-616 228 OFFCURVE",
"-613 225 CURVE",
"-604 214 OFFCURVE",
"-593 208 OFFCURVE",
"-580 208 CURVE SMOOTH"
);
}
);
width = 0;
}
);
note = slash;
unicode = 002F;
},
{
glyphname = backslash;
lastChange = "2020-05-21 17:23:43 +0000";
layers = (
{
layerId = "B0517E77-D256-4C17-95BC-6E734652FD44";
paths = (
{
closed = 1;
nodes = (
"-1030 457 OFFCURVE",
"-1031 469 OFFCURVE",
"-1031 486 CURVE SMOOTH",
"-1031 544 OFFCURVE",
"-1016 599 OFFCURVE",
"-986 650 CURVE SMOOTH",
"-927 753 OFFCURVE",
"-819 820 OFFCURVE",
"-698 820 CURVE SMOOTH",
"-639 820 OFFCURVE",
"-583 805 OFFCURVE",
"-532 774 CURVE SMOOTH",
"-430 712 OFFCURVE",
"-365 601 OFFCURVE",
"-365 485 CURVE SMOOTH",
"-365 476 OFFCURVE",
"-366 464 OFFCURVE",
"-367 448 CURVE",
"-374 504 OFFCURVE",
"-393 554 OFFCURVE",
"-424 598 CURVE SMOOTH",
"-486 686 OFFCURVE",
"-586 738 OFFCURVE",
"-698 738 CURVE SMOOTH",
"-754 738 OFFCURVE",
"-806 726 OFFCURVE",
"-853 701 CURVE SMOOTH",
"-949 652 OFFCURVE",
"-1014 560 OFFCURVE",
"-1029 448 CURVE"
);
},
{
closed = 1;
nodes = (
"-660 468 OFFCURVE",
"-675 448 OFFCURVE",
"-698 448 CURVE SMOOTH",
"-719 448 OFFCURVE",
"-739 466 OFFCURVE",
"-739 489 CURVE SMOOTH",
"-739 512 OFFCURVE",
"-721 528 OFFCURVE",
"-698 528 CURVE SMOOTH",
"-677 528 OFFCURVE",
"-660 512 OFFCURVE",
"-660 489 CURVE SMOOTH"
);
}
);
width = 0;
}
);
note = backslash;
unicode = 005C;
},
{
export = 0;
glyphname = .notdef;
lastChange = "2020-05-21 17:23:43 +0000";
layers = (
{
layerId = "B0517E77-D256-4C17-95BC-6E734652FD44";
paths = (
{
closed = 1;
nodes = (
"93 800 LINE",
"93 -200 LINE",
"410 -200 LINE",
"410 800 LINE"
);
},
{
closed = 1;
nodes = (
"333 700 LINE",
"267 700 LINE",
"267 663 LINE",
"333 663 LINE",
"333 630 LINE",
"167 630 LINE",
"167 663 LINE",
"233 663 LINE",
"233 700 LINE",
"168 700 LINE",
"168 733 LINE",
"333 733 LINE"
);
},
{
closed = 1;
nodes = (
"267 534 LINE",
"333 534 LINE",
"333 500 LINE",
"167 500 LINE",
"167 604 LINE",
"267 604 LINE"
);
},
{
closed = 1;
nodes = (
"200 570 LINE",
"200 534 LINE",
"233 534 LINE",
"233 570 LINE"
);
},
{
closed = 1;
nodes = (
"333 440 LINE",
"267 440 LINE",
"267 370 LINE",
"167 370 LINE",
"167 403 LINE",
"233 403 LINE",
"233 440 LINE",
"167 440 LINE",
"167 473 LINE",
"333 473 LINE"
);
},
{
closed = 1;
nodes = (
"333 313 LINE",
"167 313 LINE",
"167 347 LINE",
"300 347 LINE",
"300 413 LINE",
"333 413 LINE"
);
},
{
closed = 1;
nodes = (
"333 178 LINE",
"167 178 LINE",
"167 291 LINE",
"200 291 LINE",
"200 211 LINE",
"300 211 LINE",
"300 258 LINE",
"267 258 LINE",
"267 235 LINE",
"233 235 LINE",
"233 291 LINE",
"333 291 LINE"
);
},
{
closed = 1;
nodes = (
"333 5 LINE",
"167 5 LINE",
"167 118 LINE",
"333 118 LINE"
);
},
{
closed = 1;
nodes = (
"200 85 LINE",
"200 38 LINE",
"300 38 LINE",
"300 85 LINE"
);
},
{
closed = 1;
nodes = (
"333 -51 LINE",
"301 -51 LINE",
"231 -98 LINE",
"333 -98 LINE",
"333 -131 LINE",
"167 -131 LINE",
"167 -98 LINE",
"237 -51 LINE",
"167 -51 LINE",
"167 -18 LINE",
"333 -18 LINE"
);
}
);
width = 500;
}
);
note = .notdef;
},
{
glyphname = bar;
lastChange = "2020-05-21 17:23:43 +0000";
layers = (
{
layerId = "B0517E77-D256-4C17-95BC-6E734652FD44";
paths = (
{
closed = 1;
nodes = (
"-437 459 OFFCURVE",
"-438 472 OFFCURVE",
"-438 486 CURVE SMOOTH",
"-438 542 OFFCURVE",
"-415 595 OFFCURVE",
"-368 646 CURVE SMOOTH",
"-276 746 OFFCURVE",
"-101 820 OFFCURVE",
"110 820 CURVE SMOOTH",
"207 820 OFFCURVE",
"297 805 OFFCURVE",
"381 774 CURVE SMOOTH",
"549 712 OFFCURVE",
"657 602 OFFCURVE",
"657 485 CURVE SMOOTH",
"657 476 OFFCURVE",
"656 464 OFFCURVE",
"653 448 CURVE",
"641 503 OFFCURVE",
"610 553 OFFCURVE",
"559 598 CURVE SMOOTH",
"458 686 OFFCURVE",
"294 738 OFFCURVE",
"110 738 CURVE SMOOTH",
"17 738 OFFCURVE",
"-68 726 OFFCURVE",
"-146 701 CURVE SMOOTH",
"-303 652 OFFCURVE",
"-409 560 OFFCURVE",
"-434 448 CURVE"
);
}
);
width = 0;
}
);
note = bar;
unicode = 007C;
},
{
export = 0;
glyphname = _part.argon;
lastChange = "2020-05-21 17:23:43 +0000";
layers = (
{
layerId = "B0517E77-D256-4C17-95BC-6E734652FD44";
paths = (
{
closed = 1;
nodes = (
"213 208 OFFCURVE",
"242 227 OFFCURVE",
"277 264 CURVE SMOOTH",
"313 306 LINE SMOOTH",
"323 319 OFFCURVE",
"328 326 OFFCURVE",
"328 329 CURVE SMOOTH",
"328 336 OFFCURVE",
"269 340 OFFCURVE",
"152 340 CURVE SMOOTH",
"91 340 OFFCURVE",
"51 339 OFFCURVE",
"31 338 CURVE SMOOTH",
"10 336 OFFCURVE",
"0 333 OFFCURVE",
"0 329 CURVE SMOOTH",
"0 324 OFFCURVE",
"6 320 OFFCURVE",
"19 317 CURVE SMOOTH",
"32 314 OFFCURVE",
"56 311 OFFCURVE",
"93 310 CURVE SMOOTH",
"201 305 LINE",
"173 272 LINE SMOOTH",
"160 256 OFFCURVE",
"153 245 OFFCURVE",
"153 238 CURVE SMOOTH",
"153 233 OFFCURVE",
"155 228 OFFCURVE",
"158 225 CURVE SMOOTH",
"167 214 OFFCURVE",
"178 208 OFFCURVE",
"191 208 CURVE SMOOTH"
);
}
);
width = 328;
}
);
},
{
export = 0;
glyphname = _part.diargon;
lastChange = "2020-05-21 17:23:43 +0000";
layers = (
{
layerId = "B0517E77-D256-4C17-95BC-6E734652FD44";
paths = (
{
closed = 1;
nodes = (
"323 208 OFFCURVE",
"352 227 OFFCURVE",
"387 264 CURVE SMOOTH",
"423 306 LINE SMOOTH",
"433 319 OFFCURVE",
"438 326 OFFCURVE",
"438 329 CURVE SMOOTH",
"438 336 OFFCURVE",
"386 340 OFFCURVE",
"282 340 CURVE SMOOTH",
"241 340 OFFCURVE",
"212 340 OFFCURVE",
"197 339 CURVE",
"228 360 OFFCURVE",
"262 400 OFFCURVE",
"283 426 CURVE SMOOTH",
"293 439 OFFCURVE",
"298 446 OFFCURVE",
"298 449 CURVE SMOOTH",
"298 452 OFFCURVE",
"287 455 OFFCURVE",
"264 457 CURVE SMOOTH",
"241 459 OFFCURVE",
"215 460 OFFCURVE",
"187 460 CURVE SMOOTH",
"112 460 OFFCURVE",
"62 459 OFFCURVE",
"37 458 CURVE SMOOTH",
"11 456 OFFCURVE",
"-1 452 OFFCURVE",
"0 447 CURVE SMOOTH",
"3 438 OFFCURVE",
"46 431 OFFCURVE",
"128 427 CURVE SMOOTH",
"171 425 LINE",
"156 407 OFFCURVE",
"147 396 OFFCURVE",
"143 392 CURVE SMOOTH",
"120 369 OFFCURVE",
"108 350 OFFCURVE",
"108 336 CURVE SMOOTH",
"108 333 OFFCURVE",
"109 330 OFFCURVE",
"110 327 CURVE",
"113 322 OFFCURVE",
"121 318 OFFCURVE",
"135 317 CURVE SMOOTH",
"149 315 OFFCURVE",
"178 313 OFFCURVE",
"223 310 CURVE SMOOTH",
"311 305 LINE",
"283 272 LINE SMOOTH",
"270 256 OFFCURVE",
"263 245 OFFCURVE",
"263 238 CURVE SMOOTH",
"263 233 OFFCURVE",
"265 228 OFFCURVE",
"268 225 CURVE SMOOTH",
"277 214 OFFCURVE",
"288 208 OFFCURVE",
"301 208 CURVE SMOOTH"
);
}
);
width = 438;
}
);
note = slash;
},
{
export = 0;
glyphname = _part.digorgon;
lastChange = "2020-05-21 17:23:43 +0000";
layers = (
{
layerId = "B0517E77-D256-4C17-95BC-6E734652FD44";
paths = (
{
closed = 1;
nodes = (
"173 228 OFFCURVE",
"175 233 OFFCURVE",
"175 238 CURVE SMOOTH",
"175 245 OFFCURVE",
"168 256 OFFCURVE",
"155 272 CURVE SMOOTH",
"127 305 LINE",
"215 310 LINE SMOOTH",
"260 313 OFFCURVE",
"289 315 OFFCURVE",
"303 317 CURVE",
"317 318 OFFCURVE",
"325 322 OFFCURVE",
"328 327 CURVE",
"329 330 OFFCURVE",
"330 333 OFFCURVE",
"330 336 CURVE SMOOTH",
"330 350 OFFCURVE",
"318 369 OFFCURVE",
"295 392 CURVE SMOOTH",
"291 396 OFFCURVE",
"282 407 OFFCURVE",
"267 425 CURVE",
"310 427 LINE SMOOTH",
"392 431 OFFCURVE",
"435 438 OFFCURVE",
"438 447 CURVE",
"439 452 OFFCURVE",
"427 456 OFFCURVE",
"402 458 CURVE",
"376 459 OFFCURVE",
"326 460 OFFCURVE",
"251 460 CURVE SMOOTH",
"223 460 OFFCURVE",
"198 459 OFFCURVE",
"175 457 CURVE SMOOTH",
"152 455 OFFCURVE",
"140 452 OFFCURVE",
"140 449 CURVE SMOOTH",
"140 446 OFFCURVE",
"145 439 OFFCURVE",
"156 426 CURVE",
"176 400 OFFCURVE",
"210 360 OFFCURVE",
"241 339 CURVE",
"226 340 OFFCURVE",
"197 340 OFFCURVE",
"156 340 CURVE SMOOTH",
"52 340 OFFCURVE",
"0 336 OFFCURVE",
"0 329 CURVE SMOOTH",
"0 326 OFFCURVE",
"5 319 OFFCURVE",
"16 306 CURVE",
"26 293 OFFCURVE",
"38 279 OFFCURVE",
"51 264 CURVE",
"86 227 OFFCURVE",
"115 208 OFFCURVE",
"137 208 CURVE SMOOTH",
"150 208 OFFCURVE",
"161 214 OFFCURVE",
"170 225 CURVE"
);
}
);
width = 438;
}
);
},
{
export = 0;
glyphname = _part.dot;
lastChange = "2020-05-21 17:23:43 +0000";
layers = (
{
layerId = "B0517E77-D256-4C17-95BC-6E734652FD44";
paths = (
{
closed = 1;
nodes = (
"48 259 OFFCURVE",
"58 260 OFFCURVE",
"63 261 CURVE SMOOTH",
"68 262 OFFCURVE",
"71 265 OFFCURVE",
"73 270 CURVE SMOOTH",
"75 275 OFFCURVE",
"76 279 OFFCURVE",
"77 282 CURVE SMOOTH",
"81 297 OFFCURVE",
"85 308 OFFCURVE",
"89 314 CURVE SMOOTH",
"91 317 OFFCURVE",
"90 319 OFFCURVE",
"87 320 CURVE SMOOTH",
"83 321 OFFCURVE",
"72 321 OFFCURVE",
"54 321 CURVE SMOOTH",
"38 321 OFFCURVE",
"30 321 OFFCURVE",
"26 320 CURVE SMOOTH",
"22 319 OFFCURVE",
"20 317 OFFCURVE",
"19 313 CURVE SMOOTH",
"14 300 LINE",
"9 287 OFFCURVE",
"6 279 OFFCURVE",
"3 275 CURVE SMOOTH",
"1 272 OFFCURVE",
"0 270 OFFCURVE",
"0 268 CURVE SMOOTH",
"0 262 OFFCURVE",
"12 259 OFFCURVE",
"35 259 CURVE SMOOTH"
);
}
);
width = 90;
}
);
},
{
export = 0;
glyphname = _part.gorgon;
lastChange = "2020-05-21 17:23:43 +0000";
layers = (
{
layerId = "B0517E77-D256-4C17-95BC-6E734652FD44";
paths = (
{
closed = 1;
nodes = (
"173 228 OFFCURVE",
"175 233 OFFCURVE",
"175 238 CURVE SMOOTH",
"175 245 OFFCURVE",
"168 256 OFFCURVE",
"155 272 CURVE SMOOTH",
"127 305 LINE",
"235 310 LINE SMOOTH",
"307 313 OFFCURVE",
"345 318 OFFCURVE",
"348 327 CURVE SMOOTH",
"349 332 OFFCURVE",
"338 336 OFFCURVE",
"314 338 CURVE SMOOTH",
"290 339 OFFCURVE",
"244 340 OFFCURVE",
"176 340 CURVE SMOOTH",
"59 340 OFFCURVE",
"0 336 OFFCURVE",
"0 329 CURVE SMOOTH",
"0 326 OFFCURVE",
"5 319 OFFCURVE",
"16 306 CURVE SMOOTH",
"26 293 OFFCURVE",
"38 279 OFFCURVE",
"51 264 CURVE SMOOTH",
"86 227 OFFCURVE",
"115 208 OFFCURVE",
"137 208 CURVE SMOOTH",
"150 208 OFFCURVE",
"161 214 OFFCURVE",
"170 225 CURVE SMOOTH"
);
}
);
width = 348;
}
);
note = z;
},
{
export = 0;
glyphname = _part.hemeolion;
lastChange = "2020-05-21 17:23:43 +0000";
layers = (
{
layerId = "B0517E77-D256-4C17-95BC-6E734652FD44";
paths = (
{
closed = 1;
nodes = (
"215 208 OFFCURVE",
"244 227 OFFCURVE",
"279 264 CURVE SMOOTH",
"315 306 LINE SMOOTH",
"325 319 OFFCURVE",
"330 326 OFFCURVE",
"330 329 CURVE SMOOTH",
"330 336 OFFCURVE",
"278 340 OFFCURVE",
"174 340 CURVE SMOOTH",
"133 340 OFFCURVE",
"104 340 OFFCURVE",
"89 339 CURVE",
"120 360 OFFCURVE",
"154 400 OFFCURVE",
"175 426 CURVE SMOOTH",
"185 439 OFFCURVE",
"190 446 OFFCURVE",
"190 449 CURVE SMOOTH",
"190 456 OFFCURVE",
"139 460 OFFCURVE",
"112 460 CURVE SMOOTH",
"92 460 OFFCURVE",
"88 456 OFFCURVE",
"81 444 CURVE SMOOTH",
"76 435 OFFCURVE",
"71 429 OFFCURVE",
"67 425 CURVE SMOOTH",
"35 392 LINE SMOOTH",
"12 369 OFFCURVE",
"0 350 OFFCURVE",
"0 336 CURVE SMOOTH",
"0 333 OFFCURVE",
"1 330 OFFCURVE",
"2 327 CURVE",
"5 322 OFFCURVE",
"13 318 OFFCURVE",
"27 317 CURVE SMOOTH",
"41 315 OFFCURVE",
"70 313 OFFCURVE",
"115 310 CURVE SMOOTH",
"203 305 LINE",
"175 272 LINE SMOOTH",
"162 256 OFFCURVE",
"155 245 OFFCURVE",
"155 238 CURVE SMOOTH",
"155 233 OFFCURVE",
"157 228 OFFCURVE",
"160 225 CURVE SMOOTH",
"169 214 OFFCURVE",
"180 208 OFFCURVE",
"193 208 CURVE SMOOTH"
);
}
);
width = 330;
}
);
},
{
export = 0;
glyphname = _part.trigorgon;
lastChange = "2020-05-21 17:23:43 +0000";
layers = (
{
layerId = "B0517E77-D256-4C17-95BC-6E734652FD44";
paths = (
{
closed = 1;
nodes = (
"173 228 OFFCURVE",
"175 233 OFFCURVE",
"175 238 CURVE SMOOTH",
"175 245 OFFCURVE",
"168 256 OFFCURVE",
"155 272 CURVE SMOOTH",
"127 305 LINE",
"226 312 LINE SMOOTH",
"255 314 OFFCURVE",
"276 316 OFFCURVE",
"288 318 CURVE SMOOTH",
"311 321 OFFCURVE",
"314 333 OFFCURVE",
"306 347 CURVE SMOOTH",
"302 354 OFFCURVE",
"292 365 OFFCURVE",
"275 382 CURVE SMOOTH",
"271 386 OFFCURVE",
"262 397 OFFCURVE",
"247 415 CURVE",
"290 417 LINE",
"346 419 LINE SMOOTH",
"369 419 OFFCURVE",
"386 420 OFFCURVE",
"396 422 CURVE SMOOTH",
"405 423 OFFCURVE",
"413 427 OFFCURVE",
"419 434 CURVE SMOOTH",
"423 438 OFFCURVE",
"425 442 OFFCURVE",
"425 446 CURVE SMOOTH",
"425 455 OFFCURVE",
"418 467 OFFCURVE",
"405 482 CURVE SMOOTH",
"377 515 LINE",
"445 520 LINE SMOOTH",
"484 523 OFFCURVE",
"513 525 OFFCURVE",
"530 528 CURVE SMOOTH",
"565 532 OFFCURVE",
"572 544 OFFCURVE",
"524 548 CURVE SMOOTH",
"500 549 OFFCURVE",
"454 550 OFFCURVE",
"386 550 CURVE SMOOTH",
"331 550 OFFCURVE",
"295 549 OFFCURVE",
"277 548 CURVE SMOOTH",
"259 546 OFFCURVE",
"250 543 OFFCURVE",
"250 539 CURVE SMOOTH",
"250 532 OFFCURVE",
"320 464 OFFCURVE",
"339 449 CURVE",
"321 450 OFFCURVE",
"285 450 OFFCURVE",
"231 450 CURVE SMOOTH",
"203 450 OFFCURVE",
"178 449 OFFCURVE",
"155 447 CURVE SMOOTH",
"132 445 OFFCURVE",
"120 442 OFFCURVE",
"120 439 CURVE SMOOTH",
"120 426 OFFCURVE",
"189 362 OFFCURVE",
"221 339 CURVE",
"206 340 OFFCURVE",
"184 340 OFFCURVE",
"156 340 CURVE SMOOTH",
"52 340 OFFCURVE",
"0 336 OFFCURVE",
"0 329 CURVE SMOOTH",
"0 326 OFFCURVE",
"5 319 OFFCURVE",
"16 306 CURVE SMOOTH",
"26 293 OFFCURVE",
"38 279 OFFCURVE",
"51 264 CURVE SMOOTH",
"86 227 OFFCURVE",
"115 208 OFFCURVE",
"137 208 CURVE SMOOTH",
"150 208 OFFCURVE",
"161 214 OFFCURVE",
"170 225 CURVE SMOOTH"
);
}
);
width = 558;
}
);
},
{
export = 0;
glyphname = hyfe;
lastChange = "2020-05-21 17:23:43 +0000";
layers = (
{
layerId = "B0517E77-D256-4C17-95BC-6E734652FD44";
paths = (
{
closed = 1;
nodes = (
"55 -57 OFFCURVE",
"43 -46 OFFCURVE",
"41 -37 CURVE SMOOTH",
"38 -24 OFFCURVE",
"45 -20 OFFCURVE",
"72 -20 CURVE SMOOTH",
"122 -20 OFFCURVE",
"130 -5 OFFCURVE",
"123 81 CURVE SMOOTH",
"115 177 OFFCURVE",
"120 182 OFFCURVE",
"225 178 CURVE SMOOTH",
"291 175 OFFCURVE",
"304 172 OFFCURVE",
"307 157 CURVE SMOOTH",
"310 144 OFFCURVE",
"304 140 OFFCURVE",
"279 140 CURVE SMOOTH",
"235 140 OFFCURVE",
"249 124 OFFCURVE",
"254 56 CURVE SMOOTH",
"260 -21 OFFCURVE",
"259 -30 OFFCURVE",
"240 -49 CURVE SMOOTH",
"223 -66 OFFCURVE",
"207 -70 OFFCURVE",
"157 -69 CURVE SMOOTH",
"122 -68 OFFCURVE",
"83 -65 OFFCURVE",
"69 -61 CURVE SMOOTH"
);
}
);
width = 388;
}
);
},
{
export = 0;
glyphname = apos;
lastChange = "2020-05-21 17:23:43 +0000";
layers = (
{
layerId = "B0517E77-D256-4C17-95BC-6E734652FD44";
paths = (
{
closed = 1;
nodes = (
"284 -34 OFFCURVE",
"299 -6 OFFCURVE",
"354 4 CURVE SMOOTH",
"407 13 OFFCURVE",
"416 35 OFFCURVE",
"382 69 CURVE SMOOTH",
"353 98 OFFCURVE",
"291 112 OFFCURVE",
"162 119 CURVE SMOOTH",
"43 125 OFFCURVE",
"19 135 OFFCURVE",
"34 174 CURVE SMOOTH",
"55 227 OFFCURVE",
"504 142 OFFCURVE",
"582 69 CURVE SMOOTH",
"635 20 OFFCURVE",
"615 -16 OFFCURVE",
"522 -44 CURVE SMOOTH",
"462 -61 OFFCURVE",
"360 -64 OFFCURVE",
"323 -49 CURVE SMOOTH"
);
}
);
width = 641;
}
);
},
{
export = 0;
glyphname = oligon;
lastChange = "2020-05-21 17:23:43 +0000";
layers = (
{
layerId = "B0517E77-D256-4C17-95BC-6E734652FD44";
paths = (
{
closed = 1;
nodes = (
"1068 -44 OFFCURVE",
"1035 -33 OFFCURVE",
"1014 -28 CURVE SMOOTH",
"969 -17 OFFCURVE",
"925 -11 OFFCURVE",
"856 -7 CURVE SMOOTH",
"811 -4 OFFCURVE",
"585 -6 OFFCURVE",
"462 -9 CURVE SMOOTH",
"374 -12 OFFCURVE",
"298 -6 OFFCURVE",
"222 7 CURVE SMOOTH",
"108 29 OFFCURVE",
"38 68 OFFCURVE",
"30 118 CURVE SMOOTH",
"27 141 OFFCURVE",
"41 154 OFFCURVE",
"56 145 CURVE SMOOTH",
"84 129 OFFCURVE",
"153 117 OFFCURVE",
"225 108 CURVE SMOOTH",
"275 102 OFFCURVE",
"434 103 OFFCURVE",
"609 107 CURVE SMOOTH",
"773 113 OFFCURVE",
"817 112 OFFCURVE",
"850 107 CURVE SMOOTH",
"938 94 OFFCURVE",
"1013 58 OFFCURVE",
"1080 3 CURVE SMOOTH",
"1105 -18 OFFCURVE",
"1098 -64 OFFCURVE",
"1075 -49 CURVE SMOOTH"
);
}
);
width = 1126;
}
);
},
{
export = 0;
glyphname = elaf.alt;
lastChange = "2020-05-21 17:23:43 +0000";
layers = (
{
layerId = "B0517E77-D256-4C17-95BC-6E734652FD44";
paths = (
{
closed = 1;
nodes = (
"128 -65 OFFCURVE",
"52 -25 OFFCURVE",
"34 21 CURVE SMOOTH",
"29 32 OFFCURVE",
"29 56 OFFCURVE",
"35 74 CURVE SMOOTH",
"44 106 OFFCURVE",
"71 125 OFFCURVE",
"137 146 CURVE SMOOTH",
"339 210 OFFCURVE",
"449 204 OFFCURVE",
"675 174 CURVE SMOOTH",
"827 154 OFFCURVE",
"927 116 OFFCURVE",
"977 65 CURVE SMOOTH",
"1005 38 OFFCURVE",
"1015 15 OFFCURVE",
"1015 -28 CURVE SMOOTH",
"1015 -78 OFFCURVE",
"996 -81 OFFCURVE",
"916 -92 CURVE SMOOTH",
"875 -98 OFFCURVE",
"749 -80 OFFCURVE",
"732 -68 CURVE SMOOTH",
"720 -60 OFFCURVE",
"717 -55 OFFCURVE",
"723 -47 CURVE SMOOTH",
"728 -39 OFFCURVE",
"740 -36 OFFCURVE",
"771 -34 CURVE SMOOTH",
"804 -32 OFFCURVE",
"822 -21 OFFCURVE",
"824 0 CURVE SMOOTH",
"825 12 OFFCURVE",
"819 22 OFFCURVE",
"797 47 CURVE SMOOTH",
"736 114 OFFCURVE",
"619 144 OFFCURVE",
"456 144 CURVE SMOOTH",
"293 144 OFFCURVE",
"200 109 OFFCURVE",
"193 47 CURVE SMOOTH",
"189 7 OFFCURVE",
"228 -29 OFFCURVE",
"310 -43 CURVE SMOOTH",
"324 -45 OFFCURVE",
"334 -49 OFFCURVE",
"337 -53 CURVE SMOOTH",
"345 -60 OFFCURVE",
"337 -87 OFFCURVE",
"325 -92 CURVE SMOOTH",
"317 -96 OFFCURVE",
"320 -93 OFFCURVE",
"268 -86 CURVE SMOOTH"
);
}
);
width = 1045;
}
);
},
{
export = 0;
glyphname = oligon_long;
lastChange = "2020-05-21 17:23:43 +0000";
layers = (
{
layerId = "B0517E77-D256-4C17-95BC-6E734652FD44";
paths = (
{
closed = 1;
nodes = (
"1199 -44 OFFCURVE",
"1166 -33 OFFCURVE",
"1145 -28 CURVE SMOOTH",
"1100 -17 OFFCURVE",
"1056 -12 OFFCURVE",
"987 -7 CURVE SMOOTH",
"942 -4 OFFCURVE",
"586 -6 OFFCURVE",
"463 -9 CURVE SMOOTH",
"375 -11 OFFCURVE",
"299 -6 OFFCURVE",
"223 7 CURVE SMOOTH",
"109 27 OFFCURVE",
"40 68 OFFCURVE",
"31 118 CURVE SMOOTH",
"27 141 OFFCURVE",
"42 154 OFFCURVE",
"57 145 CURVE SMOOTH",
"85 128 OFFCURVE",
"154 117 OFFCURVE",
"226 108 CURVE SMOOTH",
"276 102 OFFCURVE",
"435 103 OFFCURVE",
"610 107 CURVE SMOOTH",
"774 111 OFFCURVE",
"948 112 OFFCURVE",
"981 107 CURVE SMOOTH",
"1069 94 OFFCURVE",
"1145 59 OFFCURVE",
"1211 3 CURVE SMOOTH",
"1236 -18 OFFCURVE",
"1228 -65 OFFCURVE",
"1206 -49 CURVE SMOOTH"
);
}
);
width = 1256;
}
);
},
{
export = 0;
glyphname = ken2;
lastChange = "2020-05-21 17:23:43 +0000";
layers = (
{
layerId = "B0517E77-D256-4C17-95BC-6E734652FD44";
paths = (
{
closed = 1;
nodes = (
"325 -51 OFFCURVE",
"308 -27 OFFCURVE",
"292 26 CURVE SMOOTH",
"269 101 OFFCURVE",
"263 113 OFFCURVE",
"246 119 CURVE SMOOTH",
"235 123 OFFCURVE",
"229 130 OFFCURVE",
"231 134 CURVE SMOOTH",
"237 147 OFFCURVE",
"275 152 OFFCURVE",
"321 146 CURVE SMOOTH",
"373 138 OFFCURVE",
"388 124 OFFCURVE",
"409 53 CURVE SMOOTH",
"432 -21 OFFCURVE",
"438 -32 OFFCURVE",
"452 -37 CURVE SMOOTH",
"467 -42 OFFCURVE",
"469 -57 OFFCURVE",
"453 -64 CURVE SMOOTH",
"439 -70 OFFCURVE",
"383 -69 OFFCURVE",
"357 -61 CURVE SMOOTH"
);
},
{
closed = 1;
nodes = (
"125 -51 OFFCURVE",
"108 -27 OFFCURVE",
"92 26 CURVE SMOOTH",
"69 101 OFFCURVE",
"63 113 OFFCURVE",
"46 119 CURVE SMOOTH",
"35 123 OFFCURVE",
"29 130 OFFCURVE",
"31 134 CURVE SMOOTH",
"37 147 OFFCURVE",
"75 152 OFFCURVE",
"121 146 CURVE SMOOTH",
"173 139 OFFCURVE",
"188 124 OFFCURVE",
"209 53 CURVE SMOOTH",
"231 -21 OFFCURVE",
"238 -32 OFFCURVE",
"252 -37 CURVE SMOOTH",
"267 -42 OFFCURVE",
"269 -57 OFFCURVE",
"253 -64 CURVE SMOOTH",
"239 -70 OFFCURVE",
"183 -69 OFFCURVE",
"157 -61 CURVE SMOOTH"
);
}
);
width = 494;
}
);
},
